<?xml version="1.0" encoding="utf-8"?>
<!-- Generator: Adobe Illustrator 16.0.0, SVG Export Plug-In . SVG Version: 6.00 Build 0)  -->
<!DOCTYPE svg PUBLIC "-//W3C//DTD SVG 1.1//EN" "http://www.w3.org/Graphics/SVG/1.1/DTD/svg11.dtd">
<svg version="1.1" id="Layer_1" xmlns="http://www.w3.org/2000/svg" xmlns:xlink="http://www.w3.org/1999/xlink" x="0px" y="0px"
	 width="169.091px" height="169.091px" viewBox="0 0 169.091 169.091" enable-background="new 0 0 169.091 169.091"
	 xml:space="preserve">
<path stroke="#000000" stroke-miterlimit="10" d="M84.546,0.5C38.128,0.5,0.5,38.128,0.5,84.545s37.628,84.046,84.046,84.046
	c46.417,0,84.045-37.629,84.045-84.046S130.963,0.5,84.546,0.5z M127.272,60.209c0,1.09-0.883,1.973-1.972,1.973H45.245
	c-1.089,0-1.972-0.883-1.972-1.973V37.154c0-1.09,0.883-1.973,1.972-1.973H125.3c1.089,0,1.972,0.883,1.972,1.973V60.209z
	 M84.456,163.086c-43.061,0-77.905-34.904-77.905-77.904h77.905h77.904C162.36,128.182,127.517,163.086,84.456,163.086z"/>
<rect x="49.272" y="42.182" stroke="#000000" stroke-miterlimit="10" width="10" height="12"/>
<rect x="64.272" y="42.182" stroke="#000000" stroke-miterlimit="10" width="10" height="12"/>
<rect x="79.272" y="42.182" stroke="#000000" stroke-miterlimit="10" width="10" height="12"/>
<rect x="95.272" y="42.182" stroke="#000000" stroke-miterlimit="10" width="10" height="12"/>
<rect x="110.272" y="42.182" stroke="#000000" stroke-miterlimit="10" width="10" height="12"/>
<rect x="59.772" y="95.682" fill="none" stroke="#000000" stroke-width="6" stroke-miterlimit="10" width="48" height="49"/>
<line fill="none" stroke="#000000" stroke-width="4" stroke-miterlimit="10" x1="67.772" y1="139.682" x2="67.772" y2="100.682"/>
<line fill="none" stroke="#000000" stroke-width="4" stroke-miterlimit="10" x1="75.772" y1="139.682" x2="75.772" y2="100.682"/>
<line fill="none" stroke="#000000" stroke-width="4" stroke-miterlimit="10" x1="83.772" y1="139.682" x2="83.772" y2="100.682"/>
<line fill="none" stroke="#000000" stroke-width="4" stroke-miterlimit="10" x1="91.772" y1="139.682" x2="91.772" y2="100.682"/>
<line fill="none" stroke="#000000" stroke-width="4" stroke-miterlimit="10" x1="99.772" y1="139.682" x2="99.772" y2="100.682"/>
</svg>
